<?xml version="1.0" encoding="UTF-8"?>
<svg width="120" height="120" viewBox="0 0 120 120" xmlns="http://www.w3.org/2000/svg">
    <!-- 头部和脸部 -->
    <rect x="40" y="20" width="40" height="35" fill="#FFD5B5"/>
    
    <!-- 棕色短发 -->
    <path d="M35 20 
             c0 0, 25 -10, 50 0
             v5 h-50 z" 
          fill="#8B4513"/>
    <path d="M35 20 v20 h5 v-20 z" fill="#8B4513"/>
    <path d="M80 20 v20 h5 v-20 z" fill="#8B4513"/>
    
    <!-- 眼睛（温柔的表情） -->
    <path d="M48 32 q4 4 8 0" stroke="#2C1810" fill="none" stroke-width="2"/>
    <path d="M64 32 q4 4 8 0" stroke="#2C1810" fill="none" stroke-width="2"/>
    
    <!-- 微笑的嘴巴 -->
    <path d="M55 42 q5 5 10 0" stroke="#2C1810" fill="none" stroke-width="2"/>
    
    <!-- 浅蓝色衬衫 -->
    <rect x="35" y="55" width="50" height="35" fill="#ADD8E6"/>
    
    <!-- 卷起的袖子 -->
    <rect x="30" y="55" width="8" height="20" fill="#ADD8E6"/>
    <rect x="82" y="55" width="8" height="20" fill="#ADD8E6"/>
    <path d="M30 75 h8 M82 75 h8" stroke="#87CEEB" stroke-width="2"/>
    
    <!-- 粉红色围裙 -->
    <path d="M40 60 
             h40
             v45
             h-40 z" 
          fill="#FFB6C1"/>
    
    <!-- 围裙带子 -->
    <path d="M40 60 
             c-10 -5, -5 -15, 20 -15
             c25 0, 30 10, 20 15" 
          fill="#FF69B4"/>
    
    <!-- 围裙口袋 -->
    <rect x="45" y="80" width="10" height="12" fill="#FF69B4"/>
    <rect x="65" y="80" width="10" height="12" fill="#FF69B4"/>
    
    <!-- 木制汤勺 -->
    <path d="M35 70 
             l-15 -5
             l-2 5
             l15 5 z" 
          fill="#8B4513"/>
    <rect x="33" y="68" width="4" height="15" fill="#8B4513"/>
    
    <!-- 灰色裙子 -->
    <path d="M40 95 
             l-5 20
             h50
             l-5 -20 z" 
          fill="#A9A9A9"/>
    
    <!-- 厨具装饰 -->
    <rect x="46" y="82" width="2" height="8" fill="#8B4513"/> <!-- 木勺 -->
    <rect x="66" y="82" width="2" height="8" fill="#808080"/> <!-- 铲子 -->
</svg> 