<svg xmlns="http://www.w3.org/2000/svg" viewBox="0 0 32 32" width="80" height="80">
  <!-- 帽子（调整大小） -->
  <path d="M4 7 H28 V11 H4 Z" fill="#ff0000"/>
  <path d="M2 11 H30 V13 H2 Z" fill="#ff0000"/>
  
  <!-- 帽子上的文字 -->
  <text x="16" y="9.5" font-family="Arial, sans-serif" font-size="3.5" fill="white" text-anchor="middle" dominant-baseline="middle">Feynman</text>
  
  <!-- 脸 -->
  <path d="M8 13 H24 V23 H8 Z" fill="#ffb27f"/>
  
  <!-- 眼睛 -->
  <path d="M13 16 H16 V19 H13 Z" fill="#4b3219"/>
  
  <!-- 鼻子 -->
  <path d="M17 18 H20 V21 H17 Z" fill="#ffb27f"/>
  
  <!-- 胡子 -->
  <path d="M16 21 H22 V22 H16 Z" fill="#4b3219"/>
  
  <!-- 衣服 -->
  <path d="M8 23 H24 V27 H8 Z" fill="#3537ff"/>
  
  <!-- 背带 -->
  <path d="M12 23 H14 V27 H12 Z" fill="#ff0000"/>
  <path d="M18 23 H20 V27 H18 Z" fill="#ff0000"/>
  
  <!-- 按钮 -->
  <circle cx="13" cy="25" r="1" fill="#ffff00"/>
  <circle cx="19" cy="25" r="1" fill="#ffff00"/>
  
  <!-- 腿 -->
  <path d="M10 27 H15 V31 H10 Z" fill="#ffb27f"/>
  <path d="M17 27 H22 V31 H17 Z" fill="#ffb27f"/>
  
  <!-- 鞋子 -->
  <path d="M9 29 H15 V31 H9 Z" fill="#4b3219"/>
  <path d="M17 29 H23 V31 H17 Z" fill="#4b3219"/>
  
  <!-- 手 -->
  <path d="M6 20 H9 V23 H6 Z" fill="#ffb27f"/>
</svg>