<?xml version="1.0" encoding="UTF-8"?>
<svg width="120" height="120" viewBox="0 0 120 120" xmlns="http://www.w3.org/2000/svg">
    <!-- 头部和脸部 -->
    <rect x="40" y="20" width="40" height="35" fill="#FFD5B5"/>
    
    <!-- 凌乱的短发 -->
    <path d="M35 15 
             c0 0, 25 -8, 50 0
             l-5 10 l-40 0 l-5 -10 z" 
          fill="#2C1810"/>
    <path d="M38 25 l4 -8 M45 25 l3 -10 M55 25 l-2 -10 
             M65 25 l2 -8 M75 25 l-3 -6"
          stroke="#2C1810" stroke-width="2"/>
    
    <!-- 护目镜 -->
    <path d="M38 32 h44" stroke="#1E90FF" stroke-width="3"/>
    <rect x="42" y="28" width="16" height="8" fill="#1E90FF" rx="4"/>
    <rect x="62" y="28" width="16" height="8" fill="#1E90FF" rx="4"/>
    <rect x="43" y="29" width="14" height="6" fill="#87CEFA" rx="3"/>
    <rect x="63" y="29" width="14" height="6" fill="#87CEFA" rx="3"/>
    
    <!-- 自信的笑容 -->
    <path d="M55 42 q5 4 10 0" stroke="#2C1810" fill="none" stroke-width="2"/>
    
    <!-- 橙色连帽卫衣 -->
    <rect x="35" y="55" width="50" height="35" fill="#FF8C00"/>
    
    <!-- 帽子（挂在后面） -->
    <path d="M75 45 
             c10 0, 15 10, 15 20
             q0 10, -10 15
             l-5 -5
             q5 -3, 5 -10
             c0 -8, -3 -15, -10 -15" 
          fill="#FF7F00"/>
    
    <!-- 卫衣细节 -->
    <path d="M40 60 h40 M40 70 h40 M40 80 h40" 
          stroke="#FF7F00" stroke-width="1"/>
    <path d="M35 65 h5 M80 65 h5" stroke="#FF7F00" stroke-width="2"/>
    
    <!-- 深色运动裤 -->
    <path d="M40 90 
             l-5 25
             h15
             l5 -25
             h10
             l5 25
             h15
             l-5 -25
             z" 
          fill="#2F4F4F"/>
    
    <!-- 膝盖磨损 -->
    <path d="M45 100 l3 8 M65 100 l3 8" 
          stroke="#4A766E" stroke-width="4" stroke-linecap="round"/>
    
    <!-- 蓝白运动鞋 -->
    <path d="M35 115 h15 l2 -5 h-12 z" fill="#4169E1"/>
    <path d="M40 110 h8 l1 -3 h-6 z" fill="#FFFFFF"/>
    <path d="M70 115 h15 l-2 -5 h-12 z" fill="#4169E1"/>
    <path d="M73 110 h8 l-1 -3 h-6 z" fill="#FFFFFF"/>
    
    <!-- 鞋带 -->
    <path d="M42 112 l8 0 M75 112 l8 0" 
          stroke="#FFFFFF" stroke-width="1"/>
</svg> 